<svg viewBox="0 0 200 200" xmlns="http://www.w3.org/2000/svg">
  <path fill="#E3F1FC" d="M32.9,-56.3C40.4,-52.7,42.6,-39.3,52.3,-28.3C62.1,-17.2,79.5,-8.6,80.8,0.8C82.2,10.2,67.5,20.4,58.2,32.1C48.8,43.8,44.7,57.1,35.9,63.4C27.1,69.8,13.5,69.2,1.2,67.1C-11.1,65,-22.2,61.3,-30.1,54.5C-38,47.6,-42.7,37.4,-48,27.8C-53.3,18.2,-59.3,9.1,-62.1,-1.6C-64.9,-12.3,-64.5,-24.7,-58.2,-32.6C-51.9,-40.6,-39.7,-44.1,-29,-45.8C-18.3,-47.5,-9.2,-47.2,1.8,-50.3C12.7,-53.4,25.5,-59.8,32.9,-56.3Z" transform="translate(100 100)" />
</svg>